<?xml version="1.0" encoding="utf-8"?>
<svg xmlns="http://www.w3.org/2000/svg" viewBox="0 0 96.5 96.5">
  <path d="M 52.688 71.554 L 80.489 43.754 C 81.566 42.676 83.313 42.676 84.39 43.754 L 86.979 46.344 C 88.057 47.421 88.057 49.168 86.979 50.245 L 59.179 78.045 C 58.102 79.123 56.355 79.123 55.279 78.045 L 52.688 75.455 C 51.611 74.378 51.611 72.631 52.688 71.554" style="fill: rgb(92, 94, 85); fill-opacity: 1; clip-path: url(&quot;#a&quot;);"/>
  <path d="M 35.048 89.194 L 37.217 87.025 C 38.295 85.949 40.04 85.949 41.118 87.025 L 43.708 89.616 C 44.784 90.693 44.784 92.439 43.708 93.516 L 41.539 95.685 C 40.462 96.763 38.715 96.763 37.639 95.685 L 35.048 93.095 C 33.971 92.018 33.971 90.271 35.048 89.194" style="fill: rgb(92, 94, 85); fill-opacity: 1; clip-path: url(&quot;#a&quot;);"/>
  <path d="M 71.552 43.899 L 43.752 16.098 C 42.674 15.021 42.674 13.274 43.752 12.197 L 46.342 9.607 C 47.419 8.53 49.166 8.53 50.243 9.607 L 78.043 37.408 C 79.121 38.485 79.121 40.232 78.043 41.308 L 75.453 43.899 C 74.376 44.976 72.629 44.976 71.552 43.899" style="fill: rgb(212, 146, 40); fill-opacity: 1; clip-path: url(&quot;#a&quot;);"/>
  <path d="M 89.206 61.553 L 87.037 59.384 C 85.961 58.306 85.961 56.561 87.037 55.483 L 89.628 52.893 C 90.705 51.816 92.451 51.816 93.528 52.893 L 95.697 55.062 C 96.775 56.139 96.775 57.885 95.697 58.962 L 93.107 61.553 C 92.03 62.63 90.283 62.63 89.206 61.553" style="fill: rgb(212, 146, 40); fill-opacity: 1; clip-path: url(&quot;#a&quot;);"/>
  <path d="M 46.435 87.076 L 18.635 59.276 C 17.557 58.199 17.557 56.452 18.635 55.374 L 21.225 52.785 C 22.302 51.707 24.049 51.707 25.125 52.785 L 52.926 80.586 C 54.003 81.662 54.003 83.409 52.926 84.486 L 50.336 87.076 C 49.259 88.154 47.512 88.154 46.435 87.076" style="fill: rgb(102, 151, 127); fill-opacity: 1; clip-path: url(&quot;#a&quot;);"/>
  <path d="M 2.975 43.616 L 0.806 41.447 C -0.271 40.37 -0.271 38.624 0.806 37.547 L 3.396 34.956 C 4.474 33.88 6.219 33.88 7.297 34.956 L 9.466 37.125 C 10.543 38.202 10.543 39.949 9.466 41.026 L 6.875 43.616 C 5.798 44.694 4.052 44.694 2.975 43.616" style="fill: rgb(102, 151, 127); fill-opacity: 1; clip-path: url(&quot;#a&quot;);"/>
  <path d="M 43.802 24.941 L 16.001 52.741 C 14.924 53.819 13.177 53.819 12.1 52.741 L 9.511 50.151 C 8.433 49.074 8.433 47.327 9.511 46.25 L 37.311 18.45 C 38.388 17.372 40.135 17.372 41.211 18.45 L 43.802 21.04 C 44.879 22.117 44.879 23.864 43.802 24.941" style="fill: rgb(169, 31, 38); fill-opacity: 1; clip-path: url(&quot;#a&quot;);"/>
  <path d="M 61.441 7.301 L 59.272 9.47 C 58.194 10.546 56.449 10.546 55.371 9.47 L 52.781 6.879 C 51.705 5.802 51.705 4.056 52.781 2.979 L 54.95 0.81 C 56.027 -0.268 57.774 -0.268 58.85 0.81 L 61.441 3.4 C 62.518 4.477 62.518 6.224 61.441 7.301" style="fill: rgb(169, 31, 38); fill-opacity: 1; clip-path: url(&quot;#a&quot;);"/>
</svg>