<?xml version="1.0" encoding="utf-8"?>
<svg xmlns="http://www.w3.org/2000/svg" viewBox="0 0 116.5 116.5">
  <path d="M 62.69 81.553 L 90.491 53.753 C 91.568 52.674 93.315 52.674 94.392 53.753 L 96.981 56.343 C 98.059 57.42 98.059 59.167 96.981 60.244 L 69.181 88.044 C 68.104 89.122 66.357 89.122 65.281 88.044 L 62.69 85.453 C 61.613 84.377 61.613 82.63 62.69 81.553" style="fill: rgb(92, 94, 85); fill-opacity: 1; clip-path: url(&quot;#a&quot;);"/>
  <path d="M 45.05 99.193 L 47.219 97.024 C 48.297 95.947 50.042 95.947 51.12 97.024 L 53.71 99.614 C 54.786 100.691 54.786 102.438 53.71 103.515 L 51.541 105.684 C 50.464 106.762 48.717 106.762 47.641 105.684 L 45.05 103.093 C 43.973 102.017 43.973 100.27 45.05 99.193" style="fill: rgb(92, 94, 85); fill-opacity: 1; clip-path: url(&quot;#a&quot;);"/>
  <path d="M 81.554 53.898 L 53.754 26.097 C 52.676 25.02 52.676 23.273 53.754 22.196 L 56.344 19.606 C 57.421 18.529 59.168 18.529 60.245 19.606 L 88.045 47.406 C 89.123 48.484 89.123 50.231 88.045 51.307 L 85.455 53.898 C 84.378 54.975 82.631 54.975 81.554 53.898" style="fill: rgb(212, 146, 40); fill-opacity: 1; clip-path: url(&quot;#a&quot;);"/>
  <path d="M 99.208 71.552 L 97.039 69.382 C 95.963 68.305 95.963 66.56 97.039 65.482 L 99.63 62.892 C 100.707 61.814 102.453 61.814 103.53 62.892 L 105.699 65.061 C 106.777 66.138 106.777 67.884 105.699 68.961 L 103.109 71.552 C 102.032 72.629 100.285 72.629 99.208 71.552" style="fill: rgb(212, 146, 40); fill-opacity: 1; clip-path: url(&quot;#a&quot;);"/>
  <path d="M 56.437 97.075 L 28.637 69.275 C 27.559 68.198 27.559 66.451 28.637 65.373 L 31.227 62.784 C 32.304 61.706 34.051 61.706 35.127 62.784 L 62.928 90.584 C 64.005 91.661 64.005 93.408 62.928 94.485 L 60.338 97.075 C 59.261 98.153 57.514 98.153 56.437 97.075" style="fill: rgb(102, 151, 127); fill-opacity: 1; clip-path: url(&quot;#a&quot;);"/>
  <path d="M 12.977 53.615 L 10.808 51.445 C 9.731 50.369 9.731 48.622 10.808 47.546 L 13.398 44.954 C 14.476 43.878 16.221 43.878 17.299 44.954 L 19.468 47.124 C 20.545 48.201 20.545 49.948 19.468 51.024 L 16.877 53.615 C 15.8 54.692 14.054 54.692 12.977 53.615" style="fill: rgb(102, 151, 127); fill-opacity: 1; clip-path: url(&quot;#a&quot;);"/>
  <path d="M 53.804 34.94 L 26.003 62.74 C 24.926 63.817 23.179 63.817 22.102 62.74 L 19.513 60.149 C 18.435 59.073 18.435 57.326 19.513 56.249 L 47.313 28.449 C 48.39 27.371 50.137 27.371 51.213 28.449 L 53.804 31.039 C 54.881 32.115 54.881 33.863 53.804 34.94" style="fill: rgb(169, 31, 38); fill-opacity: 1; clip-path: url(&quot;#a&quot;);"/>
  <path d="M 71.443 17.3 L 69.274 19.469 C 68.196 20.545 66.451 20.545 65.373 19.469 L 62.783 16.878 C 61.707 15.801 61.707 14.055 62.783 12.978 L 64.952 10.809 C 66.029 9.731 67.776 9.731 68.852 10.809 L 71.443 13.399 C 72.52 14.476 72.52 16.223 71.443 17.3" style="fill: rgb(169, 31, 38); fill-opacity: 1; clip-path: url(&quot;#a&quot;);"/>
</svg>