<?xml version="1.0" encoding="utf-8"?>
<svg xmlns="http://www.w3.org/2000/svg" viewBox="0 0 450 96.5">
  <defs>
    <clipPath id="clippath1" transform="">
      <path d="M 0 450 L 666 450 L 666 0 L 0 0 Z" style="fill: none; clip-rule: nonzero;"/>
    </clipPath>
  </defs>
  <g style="clip-path: url(&quot;#clippath1&quot;);" transform="matrix(0.998585, 0, 0, -0.998585, -107.529, 272.928)">
    <g transform="translate(160.4447 201.6595)">
      <path d="M 0 0 L 27.84 27.84 C 28.919 28.919 30.668 28.919 31.747 27.84 L 34.34 25.246 C 35.419 24.168 35.419 22.419 34.34 21.34 L 6.5 -6.5 C 5.421 -7.579 3.672 -7.579 2.594 -6.5 L 0 -3.906 C -1.079 -2.828 -1.079 -1.079 0 0" style="fill: rgb(92, 94, 85); fill-opacity: 1;"/>
    </g>
  </g>
  <g style="clip-path: url(&quot;#clippath1&quot;);" transform="matrix(0.998585, 0, 0, -0.998585, -107.529, 272.928)">
    <g transform="translate(142.7797 183.9946)">
      <path d="M 0 0 L 2.172 2.172 C 3.25 3.25 4.999 3.25 6.078 2.172 L 8.672 -0.422 C 9.75 -1.501 9.75 -3.25 8.672 -4.328 L 6.5 -6.5 C 5.421 -7.579 3.672 -7.579 2.594 -6.5 L 0 -3.906 C -1.079 -2.828 -1.079 -1.079 0 0" style="fill: rgb(92, 94, 85); fill-opacity: 1;"/>
    </g>
  </g>
  <g style="clip-path: url(&quot;#clippath1&quot;);" transform="matrix(0.998585, 0, 0, -0.998585, -107.529, 272.928)">
    <g transform="translate(179.3356 229.3553)">
      <path d="M 0 0 L -27.84 27.84 C -28.919 28.919 -28.919 30.668 -27.84 31.747 L -25.246 34.34 C -24.168 35.419 -22.419 35.419 -21.34 34.34 L 6.5 6.5 C 7.579 5.421 7.579 3.672 6.5 2.594 L 3.906 0 C 2.828 -1.079 1.079 -1.079 0 0" style="fill: rgb(212, 146, 40); fill-opacity: 1;"/>
    </g>
  </g>
  <g style="clip-path: url(&quot;#clippath1&quot;);" transform="matrix(0.998585, 0, 0, -0.998585, -107.529, 272.928)">
    <g transform="translate(197.0148 211.6761)">
      <path d="M 0 0 L -2.172 2.172 C -3.25 3.25 -3.25 4.999 -2.172 6.078 L 0.422 8.672 C 1.501 9.75 3.25 9.75 4.328 8.672 L 6.5 6.5 C 7.579 5.421 7.579 3.672 6.5 2.594 L 3.906 0 C 2.828 -1.079 1.079 -1.079 0 0" style="fill: rgb(212, 146, 40); fill-opacity: 1;"/>
    </g>
  </g>
  <g style="clip-path: url(&quot;#clippath1&quot;);" transform="matrix(0.998585, 0, 0, -0.998585, -107.529, 272.928)">
    <g transform="translate(154.1833 186.116)">
      <path d="M 0 0 L -27.84 27.84 C -28.919 28.919 -28.919 30.668 -27.84 31.747 L -25.246 34.34 C -24.168 35.419 -22.419 35.419 -21.34 34.34 L 6.5 6.5 C 7.579 5.421 7.579 3.672 6.5 2.594 L 3.906 0 C 2.828 -1.079 1.079 -1.079 0 0" style="fill: rgb(102, 151, 127); fill-opacity: 1;"/>
    </g>
  </g>
  <g style="clip-path: url(&quot;#clippath1&quot;);" transform="matrix(0.998585, 0, 0, -0.998585, -107.529, 272.928)">
    <g transform="translate(110.6614 229.6379)">
      <path d="M 0 0 L -2.172 2.172 C -3.25 3.25 -3.25 4.999 -2.172 6.078 L 0.422 8.672 C 1.501 9.75 3.25 9.75 4.328 8.672 L 6.5 6.5 C 7.579 5.421 7.579 3.672 6.5 2.594 L 3.906 0 C 2.828 -1.079 1.079 -1.079 0 0" style="fill: rgb(102, 151, 127); fill-opacity: 1;"/>
    </g>
  </g>
  <g style="clip-path: url(&quot;#clippath1&quot;);" transform="matrix(0.998585, 0, 0, -0.998585, -107.529, 272.928)">
    <g transform="translate(151.5457 248.3405)">
      <path d="M 0 0 L -27.84 -27.84 C -28.919 -28.919 -30.668 -28.919 -31.747 -27.84 L -34.34 -25.246 C -35.419 -24.168 -35.419 -22.419 -34.34 -21.34 L -6.5 6.5 C -5.421 7.579 -3.672 7.579 -2.594 6.5 L 0 3.906 C 1.079 2.828 1.079 1.079 0 0" style="fill: rgb(169, 31, 38); fill-opacity: 1;"/>
    </g>
  </g>
  <g style="clip-path: url(&quot;#clippath1&quot;);" transform="matrix(0.998585, 0, 0, -0.998585, -107.529, 272.928)">
    <g transform="translate(169.2106 266.0054)">
      <path d="M 0 0 L -2.172 -2.172 C -3.25 -3.25 -4.999 -3.25 -6.078 -2.172 L -8.672 0.422 C -9.75 1.501 -9.75 3.25 -8.672 4.328 L -6.5 6.5 C -5.421 7.579 -3.672 7.579 -2.594 6.5 L 0 3.906 C 1.079 2.828 1.079 1.079 0 0" style="fill: rgb(169, 31, 38); fill-opacity: 1;"/>
    </g>
  </g>
  <g style="clip-path: url(&quot;#clippath1&quot;);" transform="matrix(0.998585, 0, 0, -0.998585, -107.529, 272.928)">
    <g transform="translate(215.1161 232.7246)">
      <path d="M 0 0 C 0 9.959 6.656 15.776 16.023 15.776 C 20.856 15.776 25.341 14.249 27.216 13.361 L 27.216 4.734 L 21.744 4.734 L 21.744 10.255 C 20.313 10.65 18.194 10.995 16.319 10.995 C 10.157 10.995 5.918 7.199 5.918 0.296 C 5.918 -6.804 10.453 -10.499 16.664 -10.499 C 20.757 -10.499 24.504 -8.923 27.166 -7.344 L 27.166 -12.818 C 25.096 -13.901 21.201 -15.431 16.171 -15.431 C 6.311 -15.431 0 -9.663 0 0" style="fill: rgb(92, 94, 85); fill-opacity: 1;"/>
    </g>
  </g>
  <g style="clip-path: url(&quot;#clippath1&quot;);" transform="matrix(0.998585, 0, 0, -0.998585, -107.529, 272.928)">
    <g transform="translate(269.9683 231.7102)">
      <path d="M 0 0 C 0 6.205 -3.876 10.038 -9.031 10.038 C -14.234 10.038 -18.065 6.205 -18.065 0 C -18.065 -6.251 -14.234 -9.99 -9.031 -9.99 C -3.876 -9.99 0 -6.251 0 0 M -23.496 0 C -23.496 8.531 -17.473 14.462 -9.031 14.462 C -0.637 14.462 5.431 8.531 5.431 0 C 5.431 -8.531 -0.637 -14.416 -9.031 -14.416 C -17.473 -14.416 -23.496 -8.531 -23.496 0" style="fill: rgb(92, 94, 85); fill-opacity: 1;"/>
    </g>
  </g>
  <g style="clip-path: url(&quot;#clippath1&quot;);" transform="matrix(0.998585, 0, 0, -0.998585, -107.529, 272.928)">
    <g transform="translate(292.6778 232.1211)">
      <path d="M 0 0 C 4.424 0 5.885 2.235 5.885 4.655 C 5.885 7.072 4.379 9.307 0 9.307 L -4.472 9.307 L -4.472 0 Z M -13.506 -10.081 L -9.764 -10.081 L -9.764 9.307 L -13.506 9.307 L -13.506 13.503 L -0.091 13.503 C 8.12 13.503 11.223 8.988 11.223 4.744 C 11.223 1.507 9.399 -1.459 5.611 -2.692 L 9.807 -10.081 L 13.229 -10.081 L 13.229 -14.28 L 6.205 -14.28 L 0.502 -4.105 L -4.472 -4.105 L -4.472 -10.081 L -0.731 -10.081 L -0.731 -14.28 L -13.506 -14.28 Z" style="fill: rgb(92, 94, 85); fill-opacity: 1;"/>
    </g>
  </g>
  <g style="clip-path: url(&quot;#clippath1&quot;);" transform="matrix(0.998585, 0, 0, -0.998585, -107.529, 272.928)">
    <g transform="translate(312.1201 222.0398)">
      <path d="M 0 0 L 3.742 0 L 3.742 19.389 L 0 19.389 L 0 23.585 L 9.17 23.585 L 22.493 4.379 L 22.493 19.389 L 18.752 19.389 L 18.752 23.585 L 31.253 23.585 L 31.253 19.389 L 27.511 19.389 L 27.511 -4.198 L 22.813 -4.198 L 8.759 15.875 L 8.759 0 L 12.501 0 L 12.501 -4.198 L 0 -4.198 Z" style="fill: rgb(92, 94, 85); fill-opacity: 1;"/>
    </g>
  </g>
  <g style="clip-path: url(&quot;#clippath1&quot;);" transform="matrix(0.998585, 0, 0, -0.998585, -107.529, 272.928)">
    <g transform="translate(349.4869 222.0398)">
      <path d="M 0 0 L 3.742 0 L 3.742 19.389 L 0 19.389 L 0 23.585 L 22.904 23.585 L 22.904 15.419 L 18.021 15.419 L 18.021 19.389 L 9.033 19.389 L 9.033 11.862 L 19.482 11.862 L 19.482 7.664 L 9.033 7.664 L 9.033 0 L 18.158 0 L 18.158 4.15 L 23.085 4.15 L 23.085 -4.198 L 0 -4.198 Z" style="fill: rgb(92, 94, 85); fill-opacity: 1;"/>
    </g>
  </g>
  <g style="clip-path: url(&quot;#clippath1&quot;);" transform="matrix(0.998585, 0, 0, -0.998585, -107.529, 272.928)">
    <g transform="translate(392.2958 232.1211)">
      <path d="M 0 0 C 4.424 0 5.885 2.235 5.885 4.655 C 5.885 7.072 4.379 9.307 0 9.307 L -4.472 9.307 L -4.472 0 Z M -13.506 -10.081 L -9.764 -10.081 L -9.764 9.307 L -13.506 9.307 L -13.506 13.503 L -0.091 13.503 C 8.12 13.503 11.223 8.988 11.223 4.744 C 11.223 1.507 9.399 -1.459 5.611 -2.692 L 9.807 -10.081 L 13.229 -10.081 L 13.229 -14.28 L 6.205 -14.28 L 0.502 -4.105 L -4.472 -4.105 L -4.472 -10.081 L -0.731 -10.081 L -0.731 -14.28 L -13.506 -14.28 Z" style="fill: rgb(92, 94, 85); fill-opacity: 1;"/>
    </g>
  </g>
  <g style="clip-path: url(&quot;#clippath1&quot;);" transform="matrix(0.998585, 0, 0, -0.998585, -107.529, 272.928)">
    <g transform="translate(410.8715 218.8004)">
      <path d="M 0 0 L 0 6.933 L 4.746 6.933 L 4.746 3.285 C 5.748 3.057 7.438 2.692 9.536 2.692 C 12.501 2.692 15.284 3.422 15.284 6.159 C 15.284 12.499 0.365 9.079 0.365 19.297 C 0.365 25.137 5.294 27.372 10.768 27.372 C 13.917 27.372 17.336 26.644 19.619 25.867 L 19.619 19.069 L 14.782 19.069 L 14.782 22.811 C 13.871 22.948 12.364 23.176 10.905 23.176 C 8.214 23.176 5.474 22.4 5.474 19.845 C 5.474 13.914 20.393 17.108 20.393 6.522 C 20.393 0.457 15.421 -1.507 9.855 -1.507 C 6.205 -1.507 2.646 -0.685 0 0" style="fill: rgb(92, 94, 85); fill-opacity: 1;"/>
    </g>
  </g>
  <g style="clip-path: url(&quot;#clippath1&quot;);" transform="matrix(0.998585, 0, 0, -0.998585, -107.529, 272.928)">
    <g transform="translate(442.5093 222.0398)">
      <path d="M 0 0 L 4.105 0 L 4.105 19.389 L -1.096 19.389 L -1.096 15.145 L -5.885 15.145 L -5.885 23.585 L 19.389 23.585 L 19.389 15.145 L 14.599 15.145 L 14.599 19.389 L 9.396 19.389 L 9.396 0 L 13.503 0 L 13.503 -4.198 L 0 -4.198 Z" style="fill: rgb(92, 94, 85); fill-opacity: 1;"/>
    </g>
  </g>
  <g style="clip-path: url(&quot;#clippath1&quot;);" transform="matrix(0.998585, 0, 0, -0.998585, -107.529, 272.928)">
    <g transform="translate(489.1615 231.7102)">
      <path d="M 0 0 C 0 6.205 -3.876 10.038 -9.031 10.038 C -14.234 10.038 -18.065 6.205 -18.065 0 C -18.065 -6.251 -14.234 -9.99 -9.031 -9.99 C -3.876 -9.99 0 -6.251 0 0 M -23.496 0 C -23.496 8.531 -17.473 14.462 -9.031 14.462 C -0.637 14.462 5.431 8.531 5.431 0 C 5.431 -8.531 -0.637 -14.416 -9.031 -14.416 C -17.473 -14.416 -23.496 -8.531 -23.496 0" style="fill: rgb(92, 94, 85); fill-opacity: 1;"/>
    </g>
  </g>
  <g style="clip-path: url(&quot;#clippath1&quot;);" transform="matrix(0.998585, 0, 0, -0.998585, -107.529, 272.928)">
    <g transform="translate(497.8367 222.0398)">
      <path d="M 0 0 L 3.742 0 L 3.742 19.389 L 0 19.389 L 0 23.585 L 9.17 23.585 L 22.493 4.379 L 22.493 19.389 L 18.752 19.389 L 18.752 23.585 L 31.253 23.585 L 31.253 19.389 L 27.511 19.389 L 27.511 -4.198 L 22.813 -4.198 L 8.759 15.875 L 8.759 0 L 12.501 0 L 12.501 -4.198 L 0 -4.198 Z" style="fill: rgb(92, 94, 85); fill-opacity: 1;"/>
    </g>
  </g>
  <g style="clip-path: url(&quot;#clippath1&quot;);" transform="matrix(0.998585, 0, 0, -0.998585, -107.529, 272.928)">
    <g transform="translate(533.3938 222.3746)">
      <path d="M 0 0 L 4.04 0 L 4.04 20.935 L 0 20.935 L 0 25.465 L 24.731 25.465 L 24.731 16.648 L 19.458 16.648 L 19.458 20.935 L 9.754 20.935 L 9.754 12.808 L 21.036 12.808 L 21.036 8.275 L 9.754 8.275 L 9.754 0 L 19.606 0 L 19.606 4.481 L 24.925 4.481 L 24.925 -4.533 L 0 -4.533 Z" style="fill: rgb(92, 94, 85); fill-opacity: 1;"/>
    </g>
  </g>
  <g style="clip-path: url(&quot;#clippath1&quot;);" transform="matrix(0.998585, 0, 0, -0.998585, -107.529, 272.928)">
    <g transform="translate(414.2859 210.0292)">
      <path d="M 0 0 L 9.342 0 L 9.342 -1.357 L 1.467 -1.357 L 1.467 -6 L 8.506 -6 L 8.506 -7.337 L 1.467 -7.337 L 1.467 -13.003 L 0 -13.003 Z" style="fill: rgb(102, 151, 127); fill-opacity: 1;"/>
    </g>
  </g>
  <g style="clip-path: url(&quot;#clippath1&quot;);" transform="matrix(0.998585, 0, 0, -0.998585, -107.529, 272.928)">
    <g transform="translate(434.9496 201.7813)">
      <path d="M 0 0 L -2.955 6.631 L -5.926 0 Z M -3.622 8.34 L -2.248 8.34 L 3.676 -4.755 L 2.097 -4.755 L 0.575 -1.318 L -6.501 -1.318 L -8.043 -4.755 L -9.549 -4.755 Z" style="fill: rgb(102, 151, 127); fill-opacity: 1;"/>
    </g>
  </g>
  <g style="clip-path: url(&quot;#clippath1&quot;);" transform="matrix(0.998585, 0, 0, -0.998585, -107.529, 272.928)">
    <g transform="translate(442.111 210.0292)">
      <path d="M 0 0 L 1.486 0 L 6.221 -7.096 L 10.959 0 L 12.445 0 L 12.445 -13.003 L 10.976 -13.003 L 10.976 -2.472 L 6.241 -9.437 L 6.165 -9.437 L 1.43 -2.489 L 1.43 -13.003 L 0 -13.003 Z" style="fill: rgb(102, 151, 127); fill-opacity: 1;"/>
    </g>
  </g>
  <g style="clip-path: url(&quot;#clippath1&quot;);" transform="matrix(0.998585, 0, 0, -0.998585, -107.529, 272.928)">
    <g transform="">
      <path d="M 460.793 210.029 L 462.262 210.029 L 462.262 197.026 L 460.793 197.026 Z" style="fill: rgb(102, 151, 127); fill-opacity: 1;"/>
    </g>
    <g transform="translate(469.45 210.0292)">
      <path d="M 0 0 L 1.467 0 L 1.467 -11.646 L 8.784 -11.646 L 8.784 -13.003 L 0 -13.003 Z" style="fill: rgb(102, 151, 127); fill-opacity: 1;"/>
    </g>
    <g transform="translate(484.183 202.1711)">
      <path d="M 0 0 L -5.405 7.858 L -3.622 7.858 L 0.76 1.357 L 5.181 7.858 L 6.891 7.858 L 1.486 0.019 L 1.486 -5.145 L 0 -5.145 Z" style="fill: rgb(102, 151, 127); fill-opacity: 1;"/>
    </g>
    <g transform="translate(500.9623 203.4912)">
      <path d="M 0 0 L 0 0.037 C 0 3.713 2.75 6.76 6.577 6.76 C 8.935 6.76 10.347 5.924 11.646 4.699 L 10.645 3.62 C 9.549 4.66 8.321 5.403 6.557 5.403 C 3.678 5.403 1.525 3.064 1.525 0.073 L 1.525 0.037 C 1.525 -2.972 3.698 -5.332 6.557 -5.332 C 8.34 -5.332 9.51 -4.645 10.754 -3.456 L 11.721 -4.404 C 10.365 -5.778 8.879 -6.689 6.521 -6.689 C 2.769 -6.689 0 -3.734 0 0" style="fill: rgb(102, 151, 127); fill-opacity: 1;"/>
    </g>
    <g transform="translate(525.4391 201.7813)">
      <path d="M 0 0 L -2.955 6.631 L -5.926 0 Z M -3.622 8.34 L -2.248 8.34 L 3.676 -4.755 L 2.097 -4.755 L 0.575 -1.318 L -6.501 -1.318 L -8.043 -4.755 L -9.549 -4.755 Z" style="fill: rgb(102, 151, 127); fill-opacity: 1;"/>
    </g>
    <g transform="translate(538.7229 203.3964)">
      <path d="M 0 0 C 1.949 0 3.342 1.004 3.342 2.675 L 3.342 2.713 C 3.342 4.309 2.117 5.276 0.017 5.276 L -3.995 5.276 L -3.995 0 Z M -5.461 6.633 L 0.129 6.633 C 1.727 6.633 3.008 6.148 3.825 5.332 C 4.458 4.699 4.828 3.79 4.828 2.769 L 4.828 2.731 C 4.828 0.577 3.342 -0.687 1.299 -1.057 L 5.293 -6.37 L 3.491 -6.37 L -0.28 -1.318 L -3.995 -1.318 L -3.995 -6.37 L -5.461 -6.37 Z" style="fill: rgb(102, 151, 127); fill-opacity: 1;"/>
    </g>
    <g transform="translate(548.3605 210.0292)">
      <path d="M 0 0 L 9.398 0 L 9.398 -1.339 L 1.466 -1.339 L 1.466 -5.778 L 8.562 -5.778 L 8.562 -7.115 L 1.466 -7.115 L 1.466 -11.665 L 9.49 -11.665 L 9.49 -13.003 L 0 -13.003 Z" style="fill: rgb(102, 151, 127); fill-opacity: 1;"/>
    </g>
  </g>
</svg>